<svg height="512" viewBox="0 0 56 60" width="512" xmlns="http://www.w3.org/2000/svg"><g id="011---Water-Supply" fill="none"><g id="Icons" transform="translate(1 1)"><path id="Shape" d="m28 55v-5.5c0-4.6944204-3.8055796-8.5-8.5-8.5s-8.5 3.8055796-8.5 8.5c0 1.3807119-1.11928813 2.5-2.5 2.5s-2.5-1.1192881-2.5-2.5v-12c0-.6630412.2633921-1.298926.73223305-1.767767.46884094-.4688409 1.10472573-.732233 1.76776695-.732233h2.5v-6h-2.5c-4.69304896.0033092-8.49669076 3.806951-8.5 8.5v12c0 4.6944204 3.80557963 8.5 8.5 8.5 4.6944204 0 8.5-3.8055796 8.5-8.5 0-1.3807119 1.1192881-2.5 2.5-2.5s2.5 1.1192881 2.5 2.5v5.5z" fill="#3f51b5"/><path id="Shape" d="m40 18v19h-29c-.5522847 0-1-.4477153-1-1v-18l15-15z" fill="#fec108"/><path id="Shape" d="m37 18v19h-26c-.5522847 0-1-.4477153-1-1v-18l13.5-13.5z" fill="#ffdc00"/><path id="Shape" d="m10 16v-12c0-.55228475.4477153-1 1-1h3c.5522847 0 1 .44771525 1 1v7z" fill="#825a2c"/><path id="Shape" d="m17 24h6c.5522847 0 1 .4477153 1 1v12h-8v-12c0-.5522847.4477153-1 1-1z" fill="#3f51b5"/><path id="Shape" d="m28.719 58h-7.438c-.3080147-.0000081-.5988398-.1419601-.7883345-.3847868-.1894947-.2428268-.2565131-.5594308-.1816655-.8582132l.5-2c.1114591-.4449311.5113206-.7569879.97-.757h6.438c.4586794.0000121.8585409.3120689.97.757l.5 2c.0748476.2987824.0078292.6153864-.1816655.8582132-.1894947.2428267-.4803198.3847787-.7883345.3847868z" fill="#283593"/><path id="Shape" d="m54 39.5c0 6.9035594-5.5964406 12.5-12.5 12.5-.5013646.0005196-1.0022944-.0295362-1.5-.09-6.2789115-.7575664-11.0027024-6.0855525-11.0027024-12.41s4.7237909-11.6524336 11.0027024-12.41c.4977056-.0604638.9986354-.0905196 1.5-.09 6.9035594 0 12.5 5.5964406 12.5 12.5z" fill="#0377bc"/><ellipse id="Oval" cx="40" cy="39.5" fill="#02a9f4" rx="11" ry="12.41"/><path id="Shape" d="m42.879 23.121-17.172-17.171c-.3904999-.39038194-1.0235001-.39038194-1.414 0l-17.172 17.171c-.39049985.3903819-1.02350015.3903819-1.414 0l-1.414-1.414c-.39038194-.3904999-.39038194-1.0235001 0-1.414l20-20c.3904999-.39038194 1.0235001-.39038194 1.414 0l20 20c.3903819.3904999.3903819 1.0235001 0 1.414l-1.414 1.414c-.3904999.3903819-1.0235001.3903819-1.414 0z" fill="#a0522d"/><path id="Shape" d="m46 42.5c0 2.4852814-2.0147186 4.5-4.5 4.5s-4.5-2.0147186-4.5-4.5c0-1.781 2.31-7.492 3.62-9.968.1717486-.3269932.5106464-.5317923.88-.5317923s.7082514.2047991.88.5317923c1.31 2.476 3.62 8.187 3.62 9.968z" fill="#3f51b5"/></g><g id="Outline" fill="#000"><path id="Shape" d="m30.546 9.374 9.917 9.918 1.393 1.392z"/><path id="Shape" d="m42 27.025v-3.368l1.172 1.172c.7809997.7807639 2.0470003.7807639 2.828 0l1.414-1.414c.375248-.375096.5860729-.8839266.5860729-1.4145s-.2108249-1.039404-.5860729-1.4145l-20-20c-.7809997-.78076388-2.0470003-.78076388-2.828 0l-7.586 7.586v-3.172c0-1.1045695-.8954305-2-2-2h-3c-1.1045695 0-2 .8954305-2 2v10.172l-5.414 5.414c-.37524801.375096-.58607293.8839266-.58607293 1.4145s.21082492 1.039404.58607293 1.4145l1.414 1.414c.7809997.7807639 2.0470003.7807639 2.828 0l1.172-1.172v5.343h-.5c-5.24419223.0060617-9.4939383 4.2558078-9.5 9.5v12c0 5.2467051 4.25329488 9.5 9.5 9.5 5.2467051 0 9.5-4.2532949 9.5-9.5 0-.8284271.6715729-1.5 1.5-1.5s1.5.6715729 1.5 1.5v3.665c-.5773901.2426235-1.0070568.7426666-1.16 1.35l-.5 2c-.1493752.597594-.0150462 1.2306823.364129 1.7161282.3791753.4854459.9608909.7690865 1.576871.7688718h7.438c.6159801.0002147 1.1976957-.2834259 1.576871-.7688718.3791752-.4854459.5135042-1.1185342.364129-1.7161282l-.5-2c-.1529432-.6073334-.5826099-1.1073765-1.16-1.35v-3.665c-.0000001-5.2467051-4.2532949-9.4999999-9.5-9.4999999s-9.4999999 4.2532948-9.5 9.4999999c0 .8284271-.6715729 1.5-1.5 1.5-.82842712 0-1.5-.6715729-1.5-1.5v-12c0-.8284271.67157288-1.5 1.5-1.5h.5c0 1.1045695.8954305 2 2 2h17.088c-.6337324 5.6090518 2.2891952 11.0202344 7.3275572 13.5654233 5.0383621 2.545189 11.1283448 1.6869861 15.2671239-2.1514494 4.138779-3.8384355 5.452481-9.8466456 3.2933511-15.0621261-2.15913-5.2154805-7.3352072-8.5370203-12.9760322-8.3268478zm-12.278 30.975h-7.441l.5-2h6.438zm-19.722-23h-.5c-1.93299662 0-3.5 1.5670034-3.5 3.5v12c0 1.9329966 1.56700338 3.5 3.5 3.5 1.9329966 0 3.5-1.5670034 3.5-3.5 0-4.1421356 3.3578644-7.5 7.5-7.5s7.5 3.3578644 7.5 7.5v3.5h-4v-3.5c0-1.9329966-1.5670034-3.5-3.5-3.5s-3.5 1.5670034-3.5 3.5c-.0000001 4.1421356-3.3578644 7.4999999-7.5 7.4999999-4.14213558 0-7.49999994-3.3578643-7.5-7.4999999v-12c.00440928-4.1403079 3.35969213-7.4955907 7.5-7.5h.5zm2-30h3v5.172l-3 3zm-4.586 18.415-1.414-1.415 20-20 20 20-1.414 1.415-17.172-17.172c-.7809997-.78076388-2.0470003-.78076388-2.828 0zm16.586 13.585h-6v-11h6zm2 0v-11c0-1.1045695-.8954305-2-2-2h-6c-1.1045695 0-2 .8954305-2 2v11h-4v-15.343l14-14 14 14v5.585c-5.0866272.9696602-9.1729048 4.758874-10.523 9.758zm16.5 15c-6.3512746 0-11.5-5.1487254-11.5-11.5s5.1487254-11.5 11.5-11.5 11.5 5.1487254 11.5 11.5c-.0071642 6.3483047-5.1516953 11.4928358-11.5 11.5z"/><path id="Shape" d="m40.736 33.064c-1.283 2.425-3.736 8.377-3.736 10.436 0 3.0375661 2.4624339 5.5 5.5 5.5s5.5-2.4624339 5.5-5.5c0-2.059-2.453-8.011-3.736-10.437-.348007-.6508933-1.0262138-1.0572105-1.7642997-1.0570013-.738086.0002092-1.4160623.4069109-1.7637003 1.0580013zm1.764 13.936c-1.9329966 0-3.5-1.5670034-3.5-3.5 0-1.483 2.186-7.009 3.5-9.5 1.317 2.492 3.5 8.018 3.5 9.5 0 .9282577-.3687489 1.8184964-1.0251263 2.4748737-.6563773.6563774-1.546616 1.0251263-2.4748737 1.0251263z"/></g></g></svg>